<svg width="20" height="20" viewBox="0 0 20 20" fill="none" xmlns="http://www.w3.org/2000/svg">
<path d="M10.3364 19.7583L10.6521 19.4426C10.8613 19.2334 10.8613 18.8942 10.6521 18.685L2.6836 10.7165H19.4643C19.7601 10.7165 20 10.4766 20 10.1808V9.73436C20 9.43851 19.7601 9.19865 19.4643 9.19865H2.6836L10.6521 1.23016C10.8613 1.02096 10.8613 0.681764 10.6521 0.472523L10.3364 0.156897C10.1272 -0.0522992 9.78802 -0.0522992 9.57883 0.156897L0.156897 9.57878C-0.0522992 9.78798 -0.0522992 10.1272 0.156897 10.3364L9.57883 19.7583C9.78802 19.9675 10.1272 19.9675 10.3364 19.7583Z" fill="#808C73"/>
</svg>
